<svg width="100" height="100" viewBox="0 0 100 100" fill="none" xmlns="http://www.w3.org/2000/svg">
<path d="M92.112 83.9434V92.482H49.6625C59.247 92.482 68.0947 89.3038 75.2003 83.9434H92.112Z" fill="#F7C6AD"/>
<path d="M49.6625 7.58609C73.1054 7.58609 92.112 26.5896 92.112 50.0325C92.112 63.8909 85.4716 76.1946 75.2003 83.9434C68.0946 89.3038 59.247 92.482 49.6625 92.482C26.2196 92.482 7.21613 73.4785 7.21613 50.0325C7.21613 26.5896 26.2196 7.58609 49.6625 7.58609ZM76.652 34.7442C76.652 29.5148 72.4123 25.2783 67.183 25.2783C61.9568 25.2783 57.7172 29.5148 57.7172 34.7442C57.7172 39.9735 61.9568 44.2131 67.183 44.2131C72.4123 44.2131 76.652 39.9735 76.652 34.7442ZM76.652 67.7341C76.652 62.5048 72.4123 58.2651 67.183 58.2651C61.9568 58.2651 57.7172 62.5048 57.7172 67.7341C57.7172 72.9602 61.9568 77.1999 67.183 77.1999C72.4123 77.1999 76.652 72.9602 76.652 67.7341ZM54.8419 51.2376C54.8419 48.946 52.9812 47.0884 50.6896 47.0884C48.3981 47.0884 46.5405 48.946 46.5405 51.2376C46.5405 53.5322 48.3981 55.3898 50.6896 55.3898C52.9812 55.3898 54.8419 53.5322 54.8419 51.2376ZM43.6621 34.7442C43.6621 29.5148 39.4255 25.2783 34.1962 25.2783C28.9669 25.2783 24.7304 29.5148 24.7304 34.7442C24.7304 39.9735 28.9669 44.2131 34.1962 44.2131C39.4255 44.2131 43.6621 39.9735 43.6621 34.7442ZM43.6621 67.7341C43.6621 62.5048 39.4255 58.2651 34.1962 58.2651C28.9669 58.2651 24.7304 62.5048 24.7304 67.7341C24.7304 72.9602 28.9669 77.1999 34.1962 77.1999C39.4255 77.1999 43.6621 72.9602 43.6621 67.7341Z" fill="#F7C6AD"/>
<path d="M49.6625 94.6673C25.0526 94.6673 5.03076 74.6442 5.03076 50.0325C5.03076 25.4222 25.0526 5.4007 49.6625 5.4007C74.2743 5.4007 94.2974 25.4222 94.2974 50.0325C94.2974 64.1675 87.8165 77.1634 76.5165 85.6879C68.7294 91.5622 59.4434 94.6673 49.6625 94.6673ZM49.6625 9.77146C27.4625 9.77146 9.40153 27.8324 9.40153 50.0325C9.40153 72.2344 27.4625 90.2966 49.6625 90.2966C58.4859 90.2966 66.8615 87.4962 73.8841 82.1988C84.0792 74.5075 89.9266 62.7835 89.9266 50.0325C89.9266 27.8324 71.8641 9.77146 49.6625 9.77146Z" fill="#F68139"/>
<path d="M33.2596 45.4619C26.8352 45.4619 21.6084 40.2338 21.6084 33.8076C21.6084 27.3832 26.8352 22.1563 33.2596 22.1563C39.6844 22.1563 44.9109 27.3832 44.9109 33.8076C44.9109 40.2338 39.6844 45.4619 33.2596 45.4619ZM33.2596 26.5271C29.2454 26.5271 25.9792 29.793 25.9792 33.8076C25.9792 37.8237 29.2451 41.0911 33.2596 41.0911C37.2742 41.0911 40.5401 37.8237 40.5401 33.8076C40.5401 29.793 37.2742 26.5271 33.2596 26.5271ZM66.2464 45.4619C59.822 45.4619 54.5952 40.2338 54.5952 33.8076C54.5952 27.3832 59.822 22.1563 66.2464 22.1563C72.6727 22.1563 77.9008 27.3832 77.9008 33.8076C77.9008 40.2338 72.6727 45.4619 66.2464 45.4619ZM66.2464 26.5271C62.2322 26.5271 58.966 29.793 58.966 33.8076C58.966 37.8237 62.2322 41.0911 66.2464 41.0911C70.2625 41.0911 73.53 37.8237 73.53 33.8076C73.53 29.793 70.2625 26.5271 66.2464 26.5271ZM33.2596 78.4487C26.8352 78.4487 21.6084 73.2219 21.6084 66.7975C21.6084 60.3712 26.8352 55.1431 33.2596 55.1431C39.6844 55.1431 44.9109 60.3712 44.9109 66.7975C44.9109 73.2219 39.6844 78.4487 33.2596 78.4487ZM33.2596 59.5139C29.2454 59.5139 25.9792 62.7814 25.9792 66.7975C25.9792 70.8117 29.2451 74.0779 33.2596 74.0779C37.2742 74.0779 40.5401 70.8117 40.5401 66.7975C40.5401 62.781 37.2742 59.5139 33.2596 59.5139ZM66.2464 78.4487C59.822 78.4487 54.5952 73.2219 54.5952 66.7975C54.5952 60.3712 59.822 55.1431 66.2464 55.1431C72.6727 55.1431 77.9008 60.3712 77.9008 66.7975C77.9008 73.2219 72.6727 78.4487 66.2464 78.4487ZM66.2464 59.5139C62.2322 59.5139 58.966 62.7814 58.966 66.7975C58.966 70.8117 62.2322 74.0779 66.2464 74.0779C70.2625 74.0779 73.53 70.8117 73.53 66.7975C73.53 62.781 70.2625 59.5139 66.2464 59.5139ZM49.753 56.6386C46.2602 56.6386 43.4185 53.7957 43.4185 50.3009C43.4185 46.8081 46.2602 43.9665 49.753 43.9665C53.2475 43.9665 56.0907 46.8081 56.0907 50.3009C56.0907 53.7954 53.2475 56.6386 49.753 56.6386ZM49.753 48.3372C49.2324 48.3379 48.7333 48.545 48.3652 48.9131C47.9971 49.2812 47.79 49.7803 47.7893 50.3009C47.7893 51.3855 48.6703 52.2678 49.753 52.2678C50.8376 52.2678 51.7199 51.3855 51.7199 50.3009C51.7199 49.2182 50.8376 48.3372 49.753 48.3372ZM92.112 94.6673H49.6625C49.0829 94.6673 48.527 94.4371 48.1172 94.0273C47.7074 93.6174 47.4771 93.0616 47.4771 92.482C47.4771 91.9024 47.7074 91.3465 48.1172 90.9367C48.527 90.5268 49.0829 90.2966 49.6625 90.2966H92.112C92.6916 90.2966 93.2475 90.5268 93.6573 90.9367C94.0671 91.3465 94.2974 91.9024 94.2974 92.482C94.2974 93.0616 94.0671 93.6174 93.6573 94.0273C93.2475 94.4371 92.6916 94.6673 92.112 94.6673ZM92.112 86.1287H75.2003C74.9133 86.1287 74.6291 86.0722 74.364 85.9624C74.0988 85.8526 73.8579 85.6916 73.655 85.4887C73.452 85.2857 73.2911 85.0448 73.1812 84.7797C73.0714 84.5145 73.0149 84.2303 73.0149 83.9434C73.0149 83.6564 73.0714 83.3722 73.1812 83.107C73.2911 82.8419 73.452 82.601 73.655 82.3981C73.8579 82.1951 74.0988 82.0341 74.364 81.9243C74.6291 81.8145 74.9133 81.758 75.2003 81.758H92.112C92.6916 81.758 93.2475 81.9882 93.6573 82.3981C94.0671 82.8079 94.2974 83.3638 94.2974 83.9434C94.2974 84.523 94.0671 85.0788 93.6573 85.4887C93.2475 85.8985 92.6916 86.1287 92.112 86.1287Z" fill="#F68139"/>
</svg>
